<svg width="900" height="900" viewBox="0 0 900 900" fill="none" xmlns="http://www.w3.org/2000/svg">
  <rect width="900" height="900" fill="#fff0f3"/>
  <path d="M0 760C170 665 318 825 486 732C656 638 710 542 900 592V900H0V760Z" fill="#b8872d" opacity=".12"/>
  <path d="M0 148C124 86 205 137 315 92C433 44 510 48 630 88C752 128 803 88 900 42V0H0V148Z" fill="#fff" opacity=".55"/>
  <rect x="60" y="58" width="780" height="784" rx="52" fill="#ffffff" opacity=".72" stroke="#ffffff" stroke-width="2"/>
  <circle cx="748" cy="154" r="72" fill="#b55c72" opacity=".12"/>
  <circle cx="176" cy="704" r="92" fill="#b8872d" opacity=".12"/>
  
        <rect x="210" y="290" width="480" height="350" rx="34" fill="#fff" stroke="#b55c72" stroke-opacity=".24"/>
        <path d="M240 330L450 500L660 330M240 600L395 470M660 600L505 470" stroke="#b55c72" stroke-width="10" stroke-linecap="round" stroke-linejoin="round" fill="none"/>
        <circle cx="294" cy="275" r="48" fill="#b8872d" opacity=".18"/>
        <circle cx="606" cy="665" r="42" fill="#b55c72" opacity=".14"/>
  <rect x="112" y="106" width="230" height="54" rx="27" fill="#fff" stroke="#b55c72" stroke-opacity=".22"/>
  <circle cx="145" cy="133" r="9" fill="#b55c72"/>
  <circle cx="174" cy="133" r="9" fill="#b8872d"/>
  <circle cx="203" cy="133" r="9" fill="#b55c72" opacity=".35"/>
  <text x="112" y="752" fill="#11131a" font-family="Inter, Arial, sans-serif" font-size="50" font-weight="800">Wedding Invite</text>
  <text x="114" y="804" fill="#626775" font-family="Inter, Arial, sans-serif" font-size="25" font-weight="650">Digital invitation</text>
</svg>