<svg width="900" height="900" viewBox="0 0 900 900" fill="none" xmlns="http://www.w3.org/2000/svg">
  <rect width="900" height="900" fill="#dff7ed"/>
  <path d="M0 760C170 665 318 825 486 732C656 638 710 542 900 592V900H0V760Z" fill="#2d6cdf" opacity=".12"/>
  <path d="M0 148C124 86 205 137 315 92C433 44 510 48 630 88C752 128 803 88 900 42V0H0V148Z" fill="#fff" opacity=".55"/>
  <rect x="60" y="58" width="780" height="784" rx="52" fill="#ffffff" opacity=".72" stroke="#ffffff" stroke-width="2"/>
  <circle cx="748" cy="154" r="72" fill="#0f8a6d" opacity=".12"/>
  <circle cx="176" cy="704" r="92" fill="#2d6cdf" opacity=".12"/>
  
        <rect x="142" y="355" width="616" height="260" rx="28" fill="#fff" stroke="#0f8a6d" stroke-opacity=".22"/>
        <path d="M195 535C265 458 326 520 392 448C468 365 540 430 704 382" stroke="#0f8a6d" stroke-width="10" stroke-linecap="round" stroke-linejoin="round" fill="none"/>
        <rect x="206" y="575" width="78" height="86" rx="14" fill="#2d6cdf" opacity=".18"/>
        <rect x="320" y="510" width="78" height="151" rx="14" fill="#2d6cdf" opacity=".18"/>
        <rect x="434" y="552" width="78" height="109" rx="14" fill="#2d6cdf" opacity=".18"/>
        <rect x="548" y="475" width="78" height="186" rx="14" fill="#2d6cdf" opacity=".18"/>
  <rect x="112" y="106" width="230" height="54" rx="27" fill="#fff" stroke="#0f8a6d" stroke-opacity=".22"/>
  <circle cx="145" cy="133" r="9" fill="#0f8a6d"/>
  <circle cx="174" cy="133" r="9" fill="#2d6cdf"/>
  <circle cx="203" cy="133" r="9" fill="#0f8a6d" opacity=".35"/>
  <text x="112" y="752" fill="#11131a" font-family="Inter, Arial, sans-serif" font-size="50" font-weight="800">FinanceIQ</text>
  <text x="114" y="804" fill="#626775" font-family="Inter, Arial, sans-serif" font-size="25" font-weight="650">AI finance dashboard</text>
</svg>