<svg width="900" height="900" viewBox="0 0 900 900" fill="none" xmlns="http://www.w3.org/2000/svg">
  <rect width="900" height="900" fill="#eef9ef"/>
  <path d="M0 760C170 665 318 825 486 732C656 638 710 542 900 592V900H0V760Z" fill="#b68a2e" opacity=".12"/>
  <path d="M0 148C124 86 205 137 315 92C433 44 510 48 630 88C752 128 803 88 900 42V0H0V148Z" fill="#fff" opacity=".55"/>
  <rect x="60" y="58" width="780" height="784" rx="52" fill="#ffffff" opacity=".72" stroke="#ffffff" stroke-width="2"/>
  <circle cx="748" cy="154" r="72" fill="#3b7b4d" opacity=".12"/>
  <circle cx="176" cy="704" r="92" fill="#b68a2e" opacity=".12"/>
  
        <path d="M172 355C270 310 355 320 450 382V690C355 635 270 622 172 660Z" fill="#fff" stroke="#3b7b4d" stroke-opacity=".32" stroke-width="8"/>
        <path d="M450 382C545 320 630 310 728 355V660C630 622 545 635 450 690Z" fill="#fff" stroke="#3b7b4d" stroke-opacity=".32" stroke-width="8"/>
        <path d="M270 438H385M270 500H385M515 438H632M515 500H632" stroke="#3b7b4d" stroke-width="10" stroke-linecap="round" stroke-linejoin="round" fill="none"/>
        <circle cx="450" cy="316" r="54" fill="#b68a2e" opacity=".2"/>
  <rect x="112" y="106" width="230" height="54" rx="27" fill="#fff" stroke="#3b7b4d" stroke-opacity=".22"/>
  <circle cx="145" cy="133" r="9" fill="#3b7b4d"/>
  <circle cx="174" cy="133" r="9" fill="#b68a2e"/>
  <circle cx="203" cy="133" r="9" fill="#3b7b4d" opacity=".35"/>
  <text x="112" y="752" fill="#11131a" font-family="Inter, Arial, sans-serif" font-size="50" font-weight="800">FindYourPeace</text>
  <text x="114" y="804" fill="#626775" font-family="Inter, Arial, sans-serif" font-size="25" font-weight="650">Quran-based guidance</text>
</svg>