<svg width="900" height="900" viewBox="0 0 900 900" fill="none" xmlns="http://www.w3.org/2000/svg">
  <rect width="900" height="900" fill="#edf7f4"/>
  <path d="M0 760C170 665 318 825 486 732C656 638 710 542 900 592V900H0V760Z" fill="#b8872d" opacity=".12"/>
  <path d="M0 148C124 86 205 137 315 92C433 44 510 48 630 88C752 128 803 88 900 42V0H0V148Z" fill="#fff" opacity=".55"/>
  <rect x="60" y="58" width="780" height="784" rx="52" fill="#ffffff" opacity=".72" stroke="#ffffff" stroke-width="2"/>
  <circle cx="748" cy="154" r="72" fill="#287a66" opacity=".12"/>
  <circle cx="176" cy="704" r="92" fill="#b8872d" opacity=".12"/>
  
        <rect x="176" y="300" width="550" height="340" rx="34" fill="#fff" stroke="#287a66" stroke-opacity=".24"/>
        <path d="M250 565V430L450 320L650 430V565" stroke="#287a66" stroke-width="10" stroke-linecap="round" stroke-linejoin="round" fill="none"/>
        <rect x="390" y="470" width="120" height="95" rx="18" fill="#b8872d" opacity=".18"/>
        <path d="M300 565H600" stroke="#287a66" stroke-width="10" stroke-linecap="round" stroke-linejoin="round" fill="none"/>
  <rect x="112" y="106" width="230" height="54" rx="27" fill="#fff" stroke="#287a66" stroke-opacity=".22"/>
  <circle cx="145" cy="133" r="9" fill="#287a66"/>
  <circle cx="174" cy="133" r="9" fill="#b8872d"/>
  <circle cx="203" cy="133" r="9" fill="#287a66" opacity=".35"/>
  <text x="112" y="752" fill="#11131a" font-family="Inter, Arial, sans-serif" font-size="50" font-weight="800">Idrees Realtor</text>
  <text x="114" y="804" fill="#626775" font-family="Inter, Arial, sans-serif" font-size="25" font-weight="650">Real estate advisor</text>
</svg>