<svg width="900" height="900" viewBox="0 0 900 900" fill="none" xmlns="http://www.w3.org/2000/svg">
  <rect width="900" height="900" fill="#edf5ff"/>
  <path d="M0 760C170 665 318 825 486 732C656 638 710 542 900 592V900H0V760Z" fill="#14a38b" opacity=".12"/>
  <path d="M0 148C124 86 205 137 315 92C433 44 510 48 630 88C752 128 803 88 900 42V0H0V148Z" fill="#fff" opacity=".55"/>
  <rect x="60" y="58" width="780" height="784" rx="52" fill="#ffffff" opacity=".72" stroke="#ffffff" stroke-width="2"/>
  <circle cx="748" cy="154" r="72" fill="#315f9c" opacity=".12"/>
  <circle cx="176" cy="704" r="92" fill="#14a38b" opacity=".12"/>
  
        <rect x="210" y="286" width="360" height="430" rx="26" fill="#fff" stroke="#315f9c" stroke-opacity=".2"/>
        <rect x="280" y="230" width="360" height="430" rx="26" fill="#fff" stroke="#315f9c" stroke-opacity=".34"/>
        <path d="M340 330H565M340 388H585M340 446H510M340 565H568" stroke="#315f9c" stroke-width="10" stroke-linecap="round" stroke-linejoin="round" fill="none"/>
        <circle cx="338" cy="655" r="30" fill="#14a38b" opacity=".24"/>
        <path d="M325 655L338 668L363 638" stroke="#315f9c" stroke-width="10" stroke-linecap="round" stroke-linejoin="round" fill="none"/>
  <rect x="112" y="106" width="230" height="54" rx="27" fill="#fff" stroke="#315f9c" stroke-opacity=".22"/>
  <circle cx="145" cy="133" r="9" fill="#315f9c"/>
  <circle cx="174" cy="133" r="9" fill="#14a38b"/>
  <circle cx="203" cy="133" r="9" fill="#315f9c" opacity=".35"/>
  <text x="112" y="752" fill="#11131a" font-family="Inter, Arial, sans-serif" font-size="50" font-weight="800">LexiQ</text>
  <text x="114" y="804" fill="#626775" font-family="Inter, Arial, sans-serif" font-size="25" font-weight="650">Legal document AI</text>
</svg>