<svg width="900" height="900" viewBox="0 0 900 900" fill="none" xmlns="http://www.w3.org/2000/svg">
  <rect width="900" height="900" fill="#fff8df"/>
  <path d="M0 760C170 665 318 825 486 732C656 638 710 542 900 592V900H0V760Z" fill="#43805b" opacity=".12"/>
  <path d="M0 148C124 86 205 137 315 92C433 44 510 48 630 88C752 128 803 88 900 42V0H0V148Z" fill="#fff" opacity=".55"/>
  <rect x="60" y="58" width="780" height="784" rx="52" fill="#ffffff" opacity=".72" stroke="#ffffff" stroke-width="2"/>
  <circle cx="748" cy="154" r="72" fill="#b8872d" opacity=".12"/>
  <circle cx="176" cy="704" r="92" fill="#43805b" opacity=".12"/>
  
        <rect x="180" y="304" width="176" height="310" rx="34" fill="#fff" stroke="#b8872d" stroke-opacity=".28"/>
        <rect x="390" y="260" width="176" height="354" rx="34" fill="#fff" stroke="#b8872d" stroke-opacity=".28"/>
        <rect x="600" y="334" width="116" height="280" rx="30" fill="#fff" stroke="#b8872d" stroke-opacity=".28"/>
        <path d="M225 430H314M435 420H522M628 450H688" stroke="#b8872d" stroke-width="10" stroke-linecap="round" stroke-linejoin="round" fill="none"/>
        <circle cx="478" cy="340" r="36" fill="#43805b" opacity=".22"/>
  <rect x="112" y="106" width="230" height="54" rx="27" fill="#fff" stroke="#b8872d" stroke-opacity=".22"/>
  <circle cx="145" cy="133" r="9" fill="#b8872d"/>
  <circle cx="174" cy="133" r="9" fill="#43805b"/>
  <circle cx="203" cy="133" r="9" fill="#b8872d" opacity=".35"/>
  <text x="112" y="752" fill="#11131a" font-family="Inter, Arial, sans-serif" font-size="50" font-weight="800">Royal Grain</text>
  <text x="114" y="804" fill="#626775" font-family="Inter, Arial, sans-serif" font-size="25" font-weight="650">Rice store</text>
</svg>