<svg width="900" height="900" viewBox="0 0 900 900" fill="none" xmlns="http://www.w3.org/2000/svg">
  <rect width="900" height="900" fill="#fff0ea"/>
  <path d="M0 760C170 665 318 825 486 732C656 638 710 542 900 592V900H0V760Z" fill="#4467b0" opacity=".12"/>
  <path d="M0 148C124 86 205 137 315 92C433 44 510 48 630 88C752 128 803 88 900 42V0H0V148Z" fill="#fff" opacity=".55"/>
  <rect x="60" y="58" width="780" height="784" rx="52" fill="#ffffff" opacity=".72" stroke="#ffffff" stroke-width="2"/>
  <circle cx="748" cy="154" r="72" fill="#c85f38" opacity=".12"/>
  <circle cx="176" cy="704" r="92" fill="#4467b0" opacity=".12"/>
  
        <rect x="155" y="300" width="590" height="330" rx="34" fill="#fff" stroke="#c85f38" stroke-opacity=".25"/>
        <path d="M405 400L535 465L405 530Z" fill="#c85f38"/>
        <rect x="190" y="662" width="520" height="18" rx="9" fill="#4467b0" opacity=".18"/>
        <rect x="190" y="662" width="285" height="18" rx="9" fill="#c85f38"/>
        <rect x="168" y="230" width="162" height="42" rx="21" fill="#4467b0" opacity=".18"/>
  <rect x="112" y="106" width="230" height="54" rx="27" fill="#fff" stroke="#c85f38" stroke-opacity=".22"/>
  <circle cx="145" cy="133" r="9" fill="#c85f38"/>
  <circle cx="174" cy="133" r="9" fill="#4467b0"/>
  <circle cx="203" cy="133" r="9" fill="#c85f38" opacity=".35"/>
  <text x="112" y="752" fill="#11131a" font-family="Inter, Arial, sans-serif" font-size="50" font-weight="800">SaveIQ</text>
  <text x="114" y="804" fill="#626775" font-family="Inter, Arial, sans-serif" font-size="25" font-weight="650">Media intelligence</text>
</svg>