<svg width="900" height="900" viewBox="0 0 900 900" fill="none" xmlns="http://www.w3.org/2000/svg">
  <rect width="900" height="900" fill="#f4eefb"/>
  <path d="M0 760C170 665 318 825 486 732C656 638 710 542 900 592V900H0V760Z" fill="#d07d43" opacity=".12"/>
  <path d="M0 148C124 86 205 137 315 92C433 44 510 48 630 88C752 128 803 88 900 42V0H0V148Z" fill="#fff" opacity=".55"/>
  <rect x="60" y="58" width="780" height="784" rx="52" fill="#ffffff" opacity=".72" stroke="#ffffff" stroke-width="2"/>
  <circle cx="748" cy="154" r="72" fill="#7a5aa6" opacity=".12"/>
  <circle cx="176" cy="704" r="92" fill="#d07d43" opacity=".12"/>
  
        <rect x="310" y="240" width="280" height="470" rx="44" fill="#fff" stroke="#7a5aa6" stroke-opacity=".28"/>
        <rect x="350" y="310" width="200" height="130" rx="24" fill="#d07d43" opacity=".18"/>
        <circle cx="450" cy="515" r="58" fill="#7a5aa6" opacity=".18"/>
        <path d="M378 620H522M378 655H480" stroke="#7a5aa6" stroke-width="10" stroke-linecap="round" stroke-linejoin="round" fill="none"/>
  <rect x="112" y="106" width="230" height="54" rx="27" fill="#fff" stroke="#7a5aa6" stroke-opacity=".22"/>
  <circle cx="145" cy="133" r="9" fill="#7a5aa6"/>
  <circle cx="174" cy="133" r="9" fill="#d07d43"/>
  <circle cx="203" cy="133" r="9" fill="#7a5aa6" opacity=".35"/>
  <text x="112" y="752" fill="#11131a" font-family="Inter, Arial, sans-serif" font-size="50" font-weight="800">Socially Hygge</text>
  <text x="114" y="804" fill="#626775" font-family="Inter, Arial, sans-serif" font-size="25" font-weight="650">Creator portfolio</text>
</svg>