<svg width="900" height="900" viewBox="0 0 900 900" fill="none" xmlns="http://www.w3.org/2000/svg">
  <rect width="900" height="900" fill="#eef2ff"/>
  <path d="M0 760C170 665 318 825 486 732C656 638 710 542 900 592V900H0V760Z" fill="#0f8a6d" opacity=".12"/>
  <path d="M0 148C124 86 205 137 315 92C433 44 510 48 630 88C752 128 803 88 900 42V0H0V148Z" fill="#fff" opacity=".55"/>
  <rect x="60" y="58" width="780" height="784" rx="52" fill="#ffffff" opacity=".72" stroke="#ffffff" stroke-width="2"/>
  <circle cx="748" cy="154" r="72" fill="#5262a6" opacity=".12"/>
  <circle cx="176" cy="704" r="92" fill="#0f8a6d" opacity=".12"/>
  
        <rect x="160" y="270" width="580" height="380" rx="32" fill="#fff" stroke="#5262a6" stroke-opacity=".25"/>
        <rect x="205" y="330" width="170" height="120" rx="20" fill="#5262a6" opacity=".16"/>
        <rect x="405" y="330" width="290" height="30" rx="15" fill="#0f8a6d" opacity=".25"/>
        <rect x="405" y="385" width="235" height="24" rx="12" fill="#5262a6" opacity=".18"/>
        <rect x="205" y="490" width="490" height="100" rx="20" fill="#0f8a6d" opacity=".14"/>
  <rect x="112" y="106" width="230" height="54" rx="27" fill="#fff" stroke="#5262a6" stroke-opacity=".22"/>
  <circle cx="145" cy="133" r="9" fill="#5262a6"/>
  <circle cx="174" cy="133" r="9" fill="#0f8a6d"/>
  <circle cx="203" cy="133" r="9" fill="#5262a6" opacity=".35"/>
  <text x="112" y="752" fill="#11131a" font-family="Inter, Arial, sans-serif" font-size="50" font-weight="800">Portfolio</text>
  <text x="114" y="804" fill="#626775" font-family="Inter, Arial, sans-serif" font-size="25" font-weight="650">AI engineer system</text>
</svg>