<svg width="900" height="900" viewBox="0 0 900 900" fill="none" xmlns="http://www.w3.org/2000/svg">
  <rect width="900" height="900" fill="#eef2f7"/>
  <path d="M0 760C170 665 318 825 486 732C656 638 710 542 900 592V900H0V760Z" fill="#c05f42" opacity=".12"/>
  <path d="M0 148C124 86 205 137 315 92C433 44 510 48 630 88C752 128 803 88 900 42V0H0V148Z" fill="#fff" opacity=".55"/>
  <rect x="60" y="58" width="780" height="784" rx="52" fill="#ffffff" opacity=".72" stroke="#ffffff" stroke-width="2"/>
  <circle cx="748" cy="154" r="72" fill="#3c4d63" opacity=".12"/>
  <circle cx="176" cy="704" r="92" fill="#c05f42" opacity=".12"/>
  
        <rect x="160" y="300" width="580" height="330" rx="34" fill="#fff" stroke="#3c4d63" stroke-opacity=".22"/>
        <path d="M250 520C340 560 480 580 635 550C682 540 690 490 650 470C585 438 545 405 500 368C430 432 340 468 250 480Z" fill="#c05f42" opacity=".18" stroke="#3c4d63" stroke-width="10" stroke-linejoin="round"/>
        <path d="M360 470L410 500M420 445L470 485M482 422L532 465" stroke="#3c4d63" stroke-width="10" stroke-linecap="round" stroke-linejoin="round" fill="none"/>
  <rect x="112" y="106" width="230" height="54" rx="27" fill="#fff" stroke="#3c4d63" stroke-opacity=".22"/>
  <circle cx="145" cy="133" r="9" fill="#3c4d63"/>
  <circle cx="174" cy="133" r="9" fill="#c05f42"/>
  <circle cx="203" cy="133" r="9" fill="#3c4d63" opacity=".35"/>
  <text x="112" y="752" fill="#11131a" font-family="Inter, Arial, sans-serif" font-size="50" font-weight="800">UrbanStep</text>
  <text x="114" y="804" fill="#626775" font-family="Inter, Arial, sans-serif" font-size="25" font-weight="650">Shoes commerce</text>
</svg>