<svg width="1200" height="890" viewBox="0 0 1200 890" fill="none" xmlns="http://www.w3.org/2000/svg">
  <title>Educosys Live Generative AI Engineering Program thumbnail</title>
  <defs>
    <linearGradient id="bg" x1="102" y1="66" x2="1089" y2="860" gradientUnits="userSpaceOnUse">
      <stop stop-color="#fffdf7"/>
      <stop offset="0.46" stop-color="#f3f9f8"/>
      <stop offset="1" stop-color="#edf4ff"/>
    </linearGradient>
    <radialGradient id="orbA" cx="0" cy="0" r="1" gradientUnits="userSpaceOnUse" gradientTransform="translate(914 146) rotate(119.197) scale(422 390)">
      <stop stop-color="#21c7b8" stop-opacity="0.28"/>
      <stop offset="1" stop-color="#21c7b8" stop-opacity="0"/>
    </radialGradient>
    <radialGradient id="orbB" cx="0" cy="0" r="1" gradientUnits="userSpaceOnUse" gradientTransform="translate(194 734) rotate(-29.3164) scale(502 329)">
      <stop stop-color="#315fae" stop-opacity="0.22"/>
      <stop offset="1" stop-color="#315fae" stop-opacity="0"/>
    </radialGradient>
    <linearGradient id="panel" x1="178" y1="123" x2="1015" y2="760" gradientUnits="userSpaceOnUse">
      <stop stop-color="#06192e"/>
      <stop offset="1" stop-color="#0a2f38"/>
    </linearGradient>
    <linearGradient id="accent" x1="222" y1="215" x2="965" y2="690" gradientUnits="userSpaceOnUse">
      <stop stop-color="#38d4c3"/>
      <stop offset="0.5" stop-color="#e0bb63"/>
      <stop offset="1" stop-color="#5aa8ff"/>
    </linearGradient>
    <filter id="shadow" x="118" y="82" width="964" height="746" filterUnits="userSpaceOnUse" color-interpolation-filters="sRGB">
      <feDropShadow dx="0" dy="26" stdDeviation="28" flood-color="#0b1b2a" flood-opacity="0.18"/>
    </filter>
  </defs>
  <rect width="1200" height="890" rx="44" fill="url(#bg)"/>
  <rect width="1200" height="890" rx="44" fill="url(#orbA)"/>
  <rect width="1200" height="890" rx="44" fill="url(#orbB)"/>
  <g filter="url(#shadow)">
    <rect x="164" y="116" width="872" height="660" rx="38" fill="url(#panel)"/>
    <rect x="189" y="141" width="822" height="610" rx="28" stroke="white" stroke-opacity="0.12" stroke-width="2"/>
  </g>
  <g opacity="0.28">
    <path d="M262 621C353 534 418 509 514 524C612 540 665 624 768 585C852 553 872 472 944 459" stroke="#EFFFFB" stroke-width="2"/>
    <path d="M270 270C368 337 442 356 544 317C647 278 707 180 839 210C895 222 929 248 968 286" stroke="#EFFFFB" stroke-width="2"/>
    <path d="M289 193H918" stroke="white" stroke-opacity="0.12" stroke-width="1"/>
    <path d="M289 699H918" stroke="white" stroke-opacity="0.12" stroke-width="1"/>
  </g>
  <g>
    <rect x="232" y="190" width="158" height="44" rx="22" fill="white" fill-opacity="0.08" stroke="white" stroke-opacity="0.12"/>
    <circle cx="263" cy="212" r="7" fill="#38d4c3"/>
    <circle cx="288" cy="212" r="7" fill="#e0bb63"/>
    <circle cx="313" cy="212" r="7" fill="#91a7bf"/>
    <text x="425" y="219" fill="#D8F5EE" font-family="Arial, Helvetica, sans-serif" font-size="20" font-weight="700" letter-spacing="4">EDUCOSYS</text>
  </g>
  <g transform="translate(705 230)">
    <rect x="0" y="0" width="210" height="210" rx="42" fill="white" fill-opacity="0.08" stroke="white" stroke-opacity="0.14"/>
    <path d="M51 137C76 100 87 82 106 82C126 82 136 103 159 137" stroke="url(#accent)" stroke-width="10" stroke-linecap="round" stroke-linejoin="round"/>
    <path d="M65 82H147" stroke="#EFFFFB" stroke-width="10" stroke-linecap="round"/>
    <path d="M105 42V81" stroke="#E0BB63" stroke-width="10" stroke-linecap="round"/>
    <path d="M105 139V169" stroke="#38D4C3" stroke-width="10" stroke-linecap="round"/>
    <circle cx="105" cy="82" r="18" fill="#0B2539" stroke="#38D4C3" stroke-width="8"/>
    <circle cx="51" cy="137" r="11" fill="#0B2539" stroke="#5AA8FF" stroke-width="7"/>
    <circle cx="159" cy="137" r="11" fill="#0B2539" stroke="#E0BB63" stroke-width="7"/>
  </g>
  <text x="232" y="333" fill="white" font-family="Arial, Helvetica, sans-serif" font-size="34" font-weight="800" letter-spacing="7">LIVE PROGRAM</text>
  <text x="232" y="417" fill="#FFFDF7" font-family="Arial, Helvetica, sans-serif" font-size="66" font-weight="900">Generative AI</text>
  <text x="232" y="493" fill="#FFFDF7" font-family="Arial, Helvetica, sans-serif" font-size="66" font-weight="900">Engineering</text>
  <text x="236" y="546" fill="#BFD2DD" font-family="Arial, Helvetica, sans-serif" font-size="25" font-weight="600">LLMs, RAG workflows, LangGraph, MCP, and fine-tuning.</text>
  <text x="236" y="582" fill="#BFD2DD" font-family="Arial, Helvetica, sans-serif" font-size="25" font-weight="600">Vector databases, multimodal AI, and production-style workflows.</text>
  <g font-family="Arial, Helvetica, sans-serif" font-size="21" font-weight="800" letter-spacing="2">
    <rect x="232" y="617" width="100" height="48" rx="24" fill="white" fill-opacity="0.1" stroke="white" stroke-opacity="0.14"/>
    <text x="263" y="648" fill="#EFFFFB">LLM</text>
    <rect x="348" y="617" width="96" height="48" rx="24" fill="white" fill-opacity="0.1" stroke="white" stroke-opacity="0.14"/>
    <text x="381" y="648" fill="#EFFFFB">RAG</text>
    <rect x="460" y="617" width="166" height="48" rx="24" fill="white" fill-opacity="0.1" stroke="white" stroke-opacity="0.14"/>
    <text x="492" y="648" fill="#EFFFFB">LANGGRAPH</text>
    <rect x="642" y="617" width="96" height="48" rx="24" fill="white" fill-opacity="0.1" stroke="white" stroke-opacity="0.14"/>
    <text x="674" y="648" fill="#EFFFFB">MCP</text>
    <rect x="754" y="617" width="176" height="48" rx="24" fill="white" fill-opacity="0.1" stroke="white" stroke-opacity="0.14"/>
    <text x="787" y="648" fill="#EFFFFB">FINE-TUNING</text>
  </g>
  <path d="M228 716H945" stroke="url(#accent)" stroke-width="4" stroke-linecap="round"/>
</svg>
