<svg width="1400" height="900" viewBox="0 0 1400 900" fill="none" xmlns="http://www.w3.org/2000/svg">
  <rect width="1400" height="900" fill="#0A1020"/>
  <path d="M0 0H1400V900H0z" fill="url(#g)"/>
  <path d="M80 120H1320M80 240H1320M80 360H1320M80 480H1320M80 600H1320M80 720H1320" stroke="rgba(255,255,255,.08)"/>
  <path d="M160 80V820M320 80V820M480 80V820M640 80V820M800 80V820M960 80V820M1120 80V820M1280 80V820" stroke="rgba(255,255,255,.08)"/>
  <rect x="130" y="150" width="1140" height="600" rx="18" fill="rgba(255,255,255,.08)" stroke="rgba(255,255,255,.16)"/>
  <circle cx="185" cy="205" r="10" fill="#FF6B6B"/>
  <circle cx="220" cy="205" r="10" fill="#FFD166"/>
  <circle cx="255" cy="205" r="10" fill="#06D6A0"/>
  <text x="180" y="390" fill="#85FFF3" font-family="Arial" font-size="42" font-weight="700">saveiq</text>
  <text x="180" y="458" fill="rgba(255,255,255,.82)" font-family="Arial" font-size="28">https://saveiq.streamlit.app/</text>
  <text x="180" y="535" fill="rgba(255,255,255,.58)" font-family="Arial" font-size="24">Fallback proof card. Run with Playwright installed to capture the live site.</text>
  <defs><linearGradient id="g" x1="0" y1="0" x2="1400" y2="900"><stop stop-color="rgba(0,184,169,.24)"/><stop offset=".55" stop-color="rgba(55,85,255,.2)"/><stop offset="1" stop-color="rgba(216,169,56,.2)"/></linearGradient></defs>
</svg>